<svg width="33" height="33" viewBox="0 0 33 33" fill="none" xmlns="http://www.w3.org/2000/svg">
<path fill-rule="evenodd" clip-rule="evenodd" d="M27.9005 12.3006C25.2903 0.767742 8.20413 0.754424 5.58061 12.2872C4.04912 19.0525 8.2574 24.7922 11.933 28.3346C14.6231 30.9182 18.858 30.9182 21.5348 28.3346C25.2237 24.7922 29.432 19.0658 27.9005 12.3006ZM16.7435 21.2898C20.5129 21.2898 23.5686 18.234 23.5686 14.4646C23.5686 10.6952 20.5129 7.63949 16.7435 7.63949C12.9741 7.63949 9.91837 10.6952 9.91837 14.4646C9.91837 18.234 12.9741 21.2898 16.7435 21.2898Z" fill="#FA602D"/>
<mask id="mask0_609_423" style="mask-type:alpha" maskUnits="userSpaceOnUse" x="10" y="6" width="14" height="14">
<circle cx="16.7371" cy="12.8133" r="6.49221" fill="white"/>
</mask>
<g mask="url(#mask0_609_423)">
<path d="M22.0704 17.0232C21.0114 18.4861 19.0236 19.4719 16.7444 19.4719C14.4652 19.4719 12.4755 18.4861 11.4165 17.0213C11.6672 16.7114 11.9994 16.4842 12.3744 16.3772C12.3783 16.3584 12.3803 16.3321 12.3803 16.3077C12.3803 16.2495 12.3706 16.1931 12.3706 16.1931C11.9198 15.9697 11.6011 15.4457 11.6011 14.8354C11.6011 14.0223 12.1646 13.3632 12.8583 13.3632C13.5539 13.3632 14.1174 14.0223 14.1174 14.8354C14.1174 15.1415 14.0377 15.4232 13.9017 15.6598C13.7657 15.8946 13.5733 16.0805 13.346 16.1931C13.346 16.1931 13.3285 16.3096 13.346 16.3772C13.7754 16.4992 14.1446 16.7791 14.4011 17.1584L14.3894 17.1697H14.405C14.7819 16.5537 15.359 16.0936 16.0352 15.9021C16.043 15.872 16.0449 15.8345 16.0449 15.7988C16.0449 15.7143 16.0313 15.6298 16.0313 15.6298C15.3687 15.3031 14.9024 14.535 14.9024 13.6392C14.9024 12.4486 15.7282 11.4815 16.7464 11.4815C17.7665 11.4815 18.5923 12.4487 18.5923 13.6392C18.5923 14.088 18.4757 14.5031 18.2756 14.8486C18.0755 15.1923 17.7937 15.4664 17.4614 15.6298C17.4614 15.6298 17.4342 15.8007 17.4595 15.9021C18.1318 16.0936 18.7069 16.55 19.0839 17.1622C19.3404 16.7828 19.7115 16.4993 20.1429 16.3772C20.1468 16.3584 20.1487 16.3321 20.1487 16.3077C20.1487 16.2495 20.139 16.1932 20.139 16.1932C19.6882 15.9697 19.3695 15.4458 19.3695 14.8355C19.3695 14.0224 19.933 13.3632 20.6267 13.3632C21.3223 13.3632 21.8858 14.0224 21.8858 14.8355C21.8858 15.1416 21.8061 15.4233 21.6701 15.6599C21.5341 15.8946 21.3417 16.0805 21.1144 16.1932C21.1144 16.1932 21.0969 16.3096 21.1144 16.3772C21.4913 16.4842 21.8217 16.7133 22.0704 17.0232Z" fill="#FA602D"/>
</g>
</svg>
